<svg id="Capa_1" enable-background="new 0 0 512 512" height="512" viewBox="0 0 512 512" width="512" xmlns="http://www.w3.org/2000/svg"><g><g><path d="m453.526 36.77v438.46c0 16.16-13.1 29.27-29.27 29.27h-336.51c-16.17 0-29.28-13.11-29.28-29.27v-438.46c0-16.16 13.11-29.27 29.28-29.27h336.51c16.17 0 29.27 13.11 29.27 29.27z" fill="#da4a54"/><path d="m453.526 36.77v106.71h-395.06v-106.71c0-16.16 13.11-29.27 29.28-29.27h336.51c16.17 0 29.27 13.11 29.27 29.27z" fill="#ffd064"/><g><path d="m287.942 366.799-162.68 45.671c-13.063 3.667-26.626-3.949-30.294-17.013-3.667-13.063 3.95-26.626 17.013-30.294l162.68-45.671c13.063-3.667 26.626 3.95 30.294 17.013 3.668 13.064-3.949 26.627-17.013 30.294z" fill="#d2a572"/><path d="m227.923 465.578c-37.821 10.618-77.089-11.435-87.707-49.256l-18.214-64.877c-10.618-37.821 11.435-77.089 49.256-87.707 37.821-10.618 77.089 11.435 87.707 49.256l18.214 64.877c10.618 37.822-11.435 77.09-49.256 87.707z" fill="#eccda0"/><path d="m244.863 458.373c-5.191 3.065-10.85 5.502-16.933 7.209-37.827 10.619-77.094-11.433-87.714-49.26l-18.211-64.869c-10.619-37.827 11.433-77.094 49.26-87.713 6.083-1.708 12.184-2.573 18.211-2.657-27.139 15.994-41.238 48.76-32.327 80.504l18.211 64.869c8.912 31.744 38.005 52.384 69.503 51.917z" fill="#eab57f"/><path d="m108.796 266.774 6.017-1.689c18.248-5.123 37.194 5.517 42.317 23.765l.071.254c5.123 18.248-5.517 37.194-23.765 42.317l-6.017 1.689c-18.248 5.123-37.194-5.517-42.317-23.765l-.071-.254c-5.123-18.249 5.517-37.195 23.765-42.317z" fill="#5e6b75"/><path d="m141.921 327.735c-2.588 1.581-5.432 2.824-8.483 3.681l-6.011 1.688c-18.251 5.124-37.2-5.508-42.324-23.76l-.071-.252c-5.124-18.251 5.523-37.192 23.774-42.316l6.011-1.688c3.051-.857 6.127-1.275 9.16-1.272-12.893 7.766-19.558 23.435-15.291 38.635l.071.252c4.266 15.2 18.112 25.111 33.164 25.032z" fill="#4d5961"/><path d="m148.692 280.838c7.364 26.23 34.597 41.524 60.827 34.16 42.663-11.977 67.539-56.272 55.562-98.935l-1.767-6.294-90.422 25.385c-19.641 5.514-30.672 26.339-24.2 45.684z" fill="#5e6b75"/><g fill="#4d5961"><path d="m224.503 309.132c-4.695 2.407-9.709 4.384-14.986 5.866-26.235 7.365-53.459-7.924-60.825-34.159-6.471-19.346 4.565-40.165 24.204-45.679l27.463-7.71c-19.639 5.513-30.674 26.333-24.204 45.679 6.196 22.071 26.454 36.395 48.348 36.003z"/><path d="m238.933 384.676c-4.847-17.264-13.995 3.929-31.259 8.776s-36.106-8.488-31.259 8.776 22.771 27.33 40.035 22.483 27.33-22.771 22.483-40.035z"/></g></g><path d="m394.662 174.75h-62.44c-19.489 0-35.288 15.799-35.288 35.288v45.404c0 19.489 15.799 35.288 35.288 35.288h9.301c16.018 29.342 4.263 55.576 4.263 55.576 38.94-9.903 37.789-38.406 33.099-55.576h15.777c19.489 0 35.288-15.799 35.288-35.288v-45.404c0-19.489-15.799-35.288-35.288-35.288z" fill="#f7f9f9"/><circle cx="374.23" cy="425.796" fill="#5986cb" r="51.378"/></g><g><path d="m424.255 0h-336.51c-20.278 0-36.775 16.497-36.775 36.773v438.453c0 20.277 16.497 36.774 36.775 36.774h336.511c20.277 0 36.774-16.497 36.774-36.773v-438.454c0-20.276-16.497-36.773-36.775-36.773zm-336.51 15h336.511c12.007 0 21.774 9.768 21.774 21.773v99.204h-380.06v-99.204c0-12.005 9.768-21.773 21.775-21.773zm336.51 482h-336.51c-12.007 0-21.774-9.768-21.774-21.773v-324.249h380.06v324.249c-.001 12.005-9.769 21.773-21.776 21.773z"/><path d="m403.791 119.705c8.134 0 15.438-2.675 21.123-7.737 1.115-.994 2.174-2.085 3.145-3.244 2.661-3.175 2.244-7.905-.931-10.566-3.173-2.66-7.904-2.244-10.565.93-.506.604-1.053 1.168-1.625 1.678-2.935 2.613-6.686 3.938-11.146 3.938-12.074 0-21.897-9.823-21.897-21.897s9.823-21.897 21.897-21.897c4.389 0 8.62 1.292 12.237 3.735 3.432 2.318 8.095 1.416 10.413-2.016 2.318-3.433 1.416-8.095-2.017-10.414-6.106-4.125-13.241-6.306-20.634-6.306-20.346 0-36.897 16.552-36.897 36.897s16.551 36.899 36.897 36.899z"/><path d="m116.647 119.705c8.136 0 15.439-2.675 21.12-7.734 1.111-.989 2.169-2.08 3.146-3.243 2.662-3.173 2.249-7.903-.924-10.566s-7.903-2.249-10.566.924c-.51.608-1.058 1.173-1.63 1.683-2.934 2.613-6.684 3.938-11.146 3.938-12.074 0-21.896-9.823-21.896-21.897s9.822-21.897 21.896-21.897c4.389 0 8.621 1.292 12.238 3.735 3.433 2.318 8.095 1.416 10.413-2.016 2.318-3.433 1.416-8.095-2.017-10.414-6.106-4.125-13.241-6.306-20.635-6.306-20.345 0-36.896 16.552-36.896 36.897s16.552 36.896 36.897 36.896z"/><path d="m184.567 119.705c20.345 0 36.896-16.552 36.896-36.897s-16.552-36.897-36.896-36.897c-20.346 0-36.897 16.552-36.897 36.897s16.551 36.897 36.897 36.897zm0-58.794c12.074 0 21.896 9.823 21.896 21.897s-9.822 21.897-21.896 21.897-21.897-9.823-21.897-21.897 9.823-21.897 21.897-21.897z"/><path d="m239.034 119.705c4.143 0 7.5-3.358 7.5-7.5v-30.493c0-.032.005-.064.005-.097 0-12.226 5.372-20.125 13.687-20.125 4.142 0 9.814 0 10.324 17.29.016.551.019 4.113.019 4.156v29.269c0 4.142 3.357 7.5 7.5 7.5s7.5-3.358 7.5-7.5v-26.451l.016-8.124c.002-10.509 4.227-15.837 12.557-15.837 5.486 0 7.141 1.73 7.684 2.299 1.748 1.829 3.725 6.384 3.215 17.702-.005.113-.008 30.41-.008 30.41 0 4.142 3.357 7.5 7.5 7.5s7.5-3.358 7.5-7.5v-29.905c.591-13.617-1.751-22.699-7.364-28.571-4.397-4.601-10.631-6.934-18.526-6.934-8.005 0-14.651 2.774-19.412 7.711-4.23-5.331-10.407-8.015-18.503-8.015-5.285 0-10.071 1.415-14.153 3.991-1.05-2.874-3.8-4.929-7.038-4.929-4.143 0-7.5 3.358-7.5 7.5v59.153c-.003 4.142 3.354 7.5 7.497 7.5z"/><path d="m347.02 119.705c4.143 0 7.5-3.358 7.5-7.5v-61.056c0-4.142-3.357-7.5-7.5-7.5s-7.5 3.358-7.5 7.5v61.056c0 4.142 3.357 7.5 7.5 7.5z"/><path d="m347.02 39.3c4.143 0 7.5-3.358 7.5-7.5v-.5c0-4.142-3.357-7.5-7.5-7.5s-7.5 3.358-7.5 7.5v.5c0 4.142 3.357 7.5 7.5 7.5z"/><path d="m297.004 315.186c-7.468-4.192-16.121-5.227-24.368-2.91l-5.634 1.582-7.277-25.922c10.058-14.384 15.863-31.779 15.863-50.145 0-8.008-1.107-16.003-3.287-23.75l-1.76-6.29c-.536-1.917-1.812-3.542-3.547-4.517-1.735-.976-3.785-1.221-5.703-.683l-48.521 13.62c-3.987 1.119-6.313 5.26-5.193 9.248 1.119 3.988 5.258 6.312 9.248 5.194l41.288-11.59c1.643 6.144 2.475 12.454 2.475 18.769 0 32.433-21.834 61.213-53.097 69.989-22.203 6.232-45.345-6.765-51.582-28.967-.033-.118-.069-.234-.107-.35-2.473-7.392-1.825-15.254 1.821-22.14 3.647-6.887 9.789-11.842 17.293-13.951l13.03-3.66c3.987-1.12 6.312-5.261 5.192-9.249s-5.255-6.313-9.249-5.193l-13.031 3.66c-11.495 3.231-20.903 10.821-26.491 21.371-1.76 3.323-3.06 6.795-3.902 10.346-8.621-3.687-18.333-4.401-27.677-1.778l-6.022 1.691c-22.198 6.232-35.188 29.362-28.959 51.55l.073.263c4.526 16.12 17.96 27.383 33.48 29.957l4.221 15.037-5.626 1.579c-8.254 2.317-15.108 7.705-19.3 15.168-4.192 7.464-5.226 16.121-2.908 24.376 3.968 14.131 16.869 23.392 30.88 23.392 2.862 0 5.773-.387 8.661-1.198l5.625-1.579.068.24c5.678 20.226 18.891 37.029 37.205 47.316 11.923 6.697 25.076 10.109 38.387 10.109 7.133 0 14.313-.981 21.37-2.962 20.227-5.678 37.03-18.892 47.315-37.207 10.286-18.314 12.823-39.54 7.145-59.766l-.068-.24 5.635-1.582c8.254-2.317 15.108-7.705 19.3-15.169 4.192-7.466 5.227-16.118 2.911-24.361-2.316-8.251-7.706-15.105-15.177-19.298zm-204.68-7.857-.073-.263c-3.996-14.235 4.334-29.068 18.569-33.065l6.022-1.691c8.013-2.249 16.444-.672 23.059 4.183.366 2.199.902 4.387 1.615 6.55 1.97 6.929 5.157 13.191 9.258 18.627-1.294 10.682-8.811 19.563-19.367 22.527l-6.022 1.691c-14.229 3.997-29.067-4.334-33.061-18.559zm30.909 97.915c-9.062 2.543-18.502-2.753-21.045-11.807-1.234-4.397-.686-9.005 1.545-12.977s5.88-6.838 10.276-8.072l5.625-1.579 9.224 32.855zm140.946 23.014c-8.324 14.821-21.923 25.514-38.292 30.11-16.365 4.593-33.538 2.54-48.356-5.784-14.821-8.324-25.514-21.923-30.109-38.292l-20.585-73.327c.869-.185 1.738-.392 2.605-.635l6.022-1.691c12.962-3.639 22.989-13.005 27.653-24.96 9.526 6.808 21.078 10.663 33.094 10.662 5.067 0 10.221-.685 15.334-2.12 13.953-3.917 26.342-11.145 36.423-20.671l21.993 78.341c4.595 16.368 2.541 33.546-5.782 48.367zm32.012-76.758c-2.23 3.971-5.88 6.838-10.276 8.072l-5.635 1.582-9.224-32.855 5.635-1.582c4.386-1.232 8.995-.683 12.971 1.549 3.976 2.231 6.844 5.88 8.077 10.273 1.232 4.386.681 8.99-1.548 12.961z"/><path d="m178.875 367.048c.671 0 1.354-.091 2.031-.281 3.988-1.12 6.313-5.26 5.193-9.248l-3.884-13.834c-1.12-3.988-5.26-6.315-9.248-5.193-3.988 1.12-6.313 5.26-5.193 9.248l3.884 13.834c.929 3.309 3.939 5.474 7.217 5.474z"/><path d="m207.395 351.54c.93 3.31 3.939 5.475 7.217 5.475.671 0 1.354-.091 2.031-.281 3.988-1.12 6.313-5.26 5.193-9.248l-3.884-13.833c-1.12-3.988-5.262-6.314-9.248-5.193-3.988 1.12-6.313 5.26-5.193 9.248z"/><path d="m237.06 371.028c-6.463-2.072-11.914 2.315-17.184 6.555-4.164 3.35-8.884 7.146-14.229 8.647-5.347 1.5-11.353.715-16.651.022-6.706-.878-13.641-1.785-18.085 3.346-3.947 4.559-2.87 10.547-1.717 14.655 2.886 10.278 9.601 18.818 18.909 24.045 6.061 3.403 12.746 5.137 19.511 5.137 3.626 0 7.276-.499 10.863-1.506 21.218-5.957 33.634-28.065 27.677-49.283-1.154-4.105-3.351-9.779-9.094-11.618zm-22.638 46.462c-6.421 1.803-13.16.997-18.975-2.269-5.655-3.176-9.778-8.309-11.659-14.496 1.084.116 2.253.269 3.262.401 6.057.793 14.352 1.878 22.651-.454 8.302-2.331 14.818-7.574 19.577-11.402.792-.637 1.711-1.376 2.575-2.039 3.373 13.091-4.353 26.587-17.431 30.259z"/><path d="m394.662 167.25h-62.439c-23.594 0-42.789 19.195-42.789 42.789v45.404c0 23.593 19.195 42.788 42.789 42.788h4.684c11.005 23.858 2.413 44.145 2.035 45.009-1.176 2.625-.747 5.693 1.105 7.895 1.444 1.718 3.557 2.673 5.739 2.673.615 0 1.235-.076 1.849-.232 16.702-4.248 28.523-12.156 35.137-23.506 5.189-8.909 6.981-19.782 5.312-31.838h6.579c23.594 0 42.788-19.195 42.788-42.788v-45.404c-.001-23.595-19.196-42.79-42.789-42.79zm27.788 88.192c0 15.322-12.466 27.788-27.788 27.788h-15.777c-2.338 0-4.543 1.09-5.961 2.949-1.419 1.859-1.89 4.272-1.273 6.528 2.261 8.277 3.777 20.168-1.84 29.811-2.797 4.801-7.205 8.761-13.169 11.845 1.736-11.665 1.476-28.889-8.535-47.227-1.314-2.408-3.839-3.906-6.583-3.906h-9.301c-15.323 0-27.789-12.466-27.789-27.788v-45.404c0-15.323 12.466-27.789 27.789-27.789h62.439c15.322 0 27.788 12.466 27.788 27.789z"/><path d="m401.653 208.45h-69.168c-4.143 0-7.5 3.358-7.5 7.5s3.357 7.5 7.5 7.5h69.168c4.143 0 7.5-3.358 7.5-7.5s-3.358-7.5-7.5-7.5z"/><path d="m375.049 240.375h-42.564c-4.143 0-7.5 3.358-7.5 7.5s3.357 7.5 7.5 7.5h42.564c4.143 0 7.5-3.358 7.5-7.5s-3.357-7.5-7.5-7.5z"/><path d="m387.532 368.444c-31.636-7.336-63.327 12.428-70.66 44.052-7.335 31.626 12.431 63.325 44.063 70.661 4.434 1.027 8.91 1.538 13.365 1.538 7.868 0 15.668-1.594 23.047-4.749 3.809-1.629 5.575-6.037 3.946-9.845-1.628-3.808-6.035-5.576-9.845-3.947-8.606 3.681-17.984 4.508-27.127 2.39-23.573-5.467-38.305-29.09-32.839-52.66 5.466-23.566 29.085-38.294 52.663-32.828 11.414 2.643 21.115 9.576 27.316 19.521 6.2 9.946 8.157 21.71 5.509 33.128-1.17 5.047-3.187 9.785-5.993 14.083-2.265 3.468-1.29 8.115 2.178 10.38 3.466 2.264 8.114 1.291 10.381-2.178 3.771-5.774 6.479-12.132 8.047-18.897 3.554-15.32.928-31.107-7.393-44.452-8.32-13.346-21.341-22.65-36.658-26.197z"/><path d="m380.078 433.783 7.436-32.071c.936-4.035-1.577-8.064-5.612-9-4.033-.938-8.064 1.577-9.001 5.612l-7.436 32.071c-.936 4.035 1.577 8.064 5.612 9 .57.132 1.14.195 1.701.195 3.411.001 6.496-2.341 7.3-5.807z"/><path d="m361.058 449.405-.113.487c-.938 4.034 1.57 8.066 5.604 9.004.572.133 1.144.197 1.707.197 3.408 0 6.492-2.339 7.298-5.802l.113-.487c.938-4.034-1.57-8.066-5.604-9.004-4.037-.942-8.066 1.571-9.005 5.605z"/></g></g></svg>