<?xml version="1.0" standalone="no"?>
<!DOCTYPE svg PUBLIC "-//W3C//DTD SVG 20010904//EN"
 "http://www.w3.org/TR/2001/REC-SVG-20010904/DTD/svg10.dtd">
<svg version="1.0" xmlns="http://www.w3.org/2000/svg"
 width="700.000000pt" height="700.000000pt" viewBox="0 0 700.000000 700.000000"
 preserveAspectRatio="xMidYMid meet">
<metadata>
Created by potrace 1.11, written by Peter Selinger 2001-2013
</metadata>
<g transform="translate(0.000000,700.000000) scale(0.100000,-0.100000)"
fill="#000000" stroke="none">
<path d="M1085 6986 c-133 -32 -270 -138 -329 -253 -60 -120 -56 116 -56
-3233 0 -2685 2 -3073 15 -3123 47 -180 202 -328 383 -366 75 -16 4729 -16
4804 0 133 28 277 135 340 255 62 116 58 -126 58 3234 0 2685 -2 3073 -15
3123 -47 180 -202 328 -383 366 -80 17 -4748 14 -4817 -3z m4818 -212 c63 -21
130 -83 164 -152 l28 -57 3 -712 3 -713 -2601 0 -2601 0 3 713 3 712 24 53
c28 63 103 134 164 155 37 14 334 16 2403 16 2123 1 2365 -1 2407 -15z m-431
-2275 c159 -34 275 -159 298 -320 12 -82 12 -635 1 -716 -19 -131 -98 -241
-216 -299 -58 -28 -66 -29 -238 -34 l-179 -5 -30 -34 c-33 -37 -33 -29 -7
-208 15 -106 5 -180 -35 -269 -25 -54 -98 -134 -153 -166 l-29 -17 -1 147 c-1
170 -26 288 -89 423 -57 120 -61 123 -217 129 -114 5 -140 10 -188 32 -106 48
-185 142 -214 253 -12 48 -15 124 -15 397 0 211 4 357 11 390 31 147 138 258
284 294 67 17 940 19 1017 3z m-1927 -2174 c82 -291 154 -559 161 -595 7 -36
13 -107 14 -158 1 -397 -265 -740 -655 -843 -105 -28 -298 -31 -400 -6 -192
47 -362 151 -482 297 -106 127 -137 210 -299 788 -80 288 -145 525 -143 526 2
2 49 17 104 34 58 18 126 48 160 70 74 48 162 144 199 217 l28 55 27 -19 c84
-59 226 -108 348 -120 222 -22 470 60 688 227 50 38 93 67 96 63 3 -3 72 -244
154 -536z m420 180 c84 -49 128 -151 105 -244 -23 -97 -99 -165 -207 -187
l-30 -6 -57 204 c-31 111 -59 211 -62 220 -4 13 6 21 43 32 68 22 152 15 208
-19z m-2267 -805 c33 -118 59 -216 58 -217 -1 -1 -30 -10 -65 -18 -102 -27
-197 5 -257 86 -80 109 -42 272 80 336 41 21 110 41 118 34 3 -3 33 -103 66
-221z m3562 55 c161 -43 312 -162 382 -303 93 -184 89 -384 -12 -570 -34 -62
-39 -115 -14 -150 15 -22 15 -25 -7 -49 -13 -13 -46 -41 -72 -60 l-48 -35 -23
21 c-34 32 -76 36 -145 12 -169 -58 -325 -47 -481 35 -178 93 -299 280 -316
486 -11 138 43 302 139 420 75 91 212 172 342 201 47 11 204 6 255 -8z"/>
<path d="M4712 6668 c-98 -26 -88 -185 13 -204 61 -11 125 45 125 108 0 19
-33 88 -42 88 -2 0 -17 4 -33 8 -17 5 -45 5 -63 0z"/>
<path d="M4684 6382 c-43 -35 -44 -43 -44 -497 0 -478 0 -479 60 -510 37 -19
53 -19 90 0 60 31 60 32 60 503 0 280 -4 440 -11 460 -6 17 -21 38 -34 46 -32
21 -95 20 -121 -2z"/>
<path d="M3213 6361 c-52 -32 -54 -57 -51 -514 3 -380 4 -414 21 -439 22 -31
74 -52 110 -43 14 4 36 18 49 32 23 24 23 28 28 306 5 268 7 285 29 335 29 65
77 108 130 117 81 14 127 -15 152 -94 7 -22 14 -154 18 -338 6 -299 6 -302 29
-326 30 -32 65 -41 107 -27 68 22 69 30 75 370 4 269 7 309 23 338 27 49 71
72 140 72 90 0 113 -17 142 -105 3 -10 6 -145 6 -300 0 -319 3 -340 61 -368
49 -24 89 -15 123 25 l26 31 -3 326 c-4 287 -6 332 -23 376 -54 146 -144 213
-300 222 -99 7 -170 -11 -246 -62 l-52 -36 -31 29 c-45 43 -86 61 -162 71 -74
11 -140 2 -206 -27 l-42 -18 -25 28 c-35 38 -85 46 -128 19z"/>
<path d="M1450 6351 c-91 -29 -142 -61 -211 -130 -228 -229 -188 -595 84 -776
189 -126 445 -103 588 52 54 59 52 119 -5 165 -39 32 -88 23 -145 -25 -111
-95 -253 -89 -367 15 -149 137 -116 389 64 482 82 42 207 38 288 -9 24 -14 58
-25 79 -25 80 0 125 100 74 164 -69 88 -305 134 -449 87z"/>
<path d="M2379 6351 c-126 -40 -240 -133 -301 -247 -104 -193 -65 -440 96
-597 191 -187 491 -191 686 -11 175 162 216 393 109 606 -37 74 -133 172 -205
210 -109 58 -272 75 -385 39z m255 -208 c57 -20 117 -73 151 -134 27 -48 30
-63 30 -139 0 -72 -4 -92 -27 -135 -31 -60 -77 -104 -138 -136 -64 -33 -185
-34 -251 -1 -105 51 -169 151 -169 263 0 82 21 145 66 198 85 99 209 130 338
84z"/>
<path d="M5361 6344 c-98 -33 -181 -93 -241 -173 -71 -94 -92 -155 -98 -278
-5 -123 16 -205 76 -298 104 -161 304 -255 484 -227 166 25 313 142 293 232
-9 42 -58 80 -104 80 -30 0 -48 -9 -89 -45 -82 -69 -164 -83 -268 -44 -115 43
-187 149 -188 274 -1 225 222 364 429 266 83 -39 115 -39 155 -3 66 59 44 136
-52 185 -126 64 -269 75 -397 31z"/>
<path d="M4482 4125 c-50 -42 -51 -106 -2 -155 20 -20 30 -20 539 -20 l519 0
26 31 c28 33 34 85 16 120 -26 48 -35 49 -569 49 l-499 0 -30 -25z"/>
<path d="M4481 3689 c-50 -47 -50 -111 1 -154 l30 -25 319 0 c347 0 363 2 387
55 7 14 12 35 12 46 0 28 -27 77 -49 89 -13 6 -142 10 -348 10 -320 0 -330 -1
-352 -21z"/>
<path d="M2809 2481 c-37 -38 -37 -67 1 -201 34 -121 65 -160 124 -160 41 0
91 38 100 76 11 43 -52 253 -85 287 -39 39 -99 38 -140 -2z"/>
<path d="M2354 2370 c-30 -12 -64 -58 -64 -88 0 -14 14 -76 31 -138 37 -133
57 -159 124 -159 32 0 50 6 69 24 38 36 40 69 11 178 -39 141 -49 161 -89 178
-40 17 -52 17 -82 5z"/>
<path d="M3148 1926 c-45 -16 -67 -30 -176 -112 -45 -35 -108 -73 -140 -85
-52 -19 -67 -21 -172 -13 -195 14 -255 12 -287 -12 -77 -57 -93 -142 -49 -265
64 -181 219 -314 416 -355 267 -56 546 119 626 391 36 121 17 298 -42 387 -39
61 -112 87 -176 64z"/>
<path d="M5153 1630 c-12 -5 -30 -21 -39 -35 -26 -40 -126 -471 -120 -520 6
-54 43 -85 100 -85 54 0 92 28 106 78 31 108 108 466 103 480 -24 78 -82 109
-150 82z"/>
<path d="M4964 906 c-91 -91 10 -231 125 -172 71 37 68 157 -6 195 -42 21 -83
13 -119 -23z"/>
</g>
</svg>
