<?xml version="1.0" standalone="no"?>
<!DOCTYPE svg PUBLIC "-//W3C//DTD SVG 20010904//EN"
 "http://www.w3.org/TR/2001/REC-SVG-20010904/DTD/svg10.dtd">
<svg version="1.0" xmlns="http://www.w3.org/2000/svg"
 width="700.000000pt" height="700.000000pt" viewBox="0 0 700.000000 700.000000"
 preserveAspectRatio="xMidYMid meet">
<metadata>
Created by potrace 1.11, written by Peter Selinger 2001-2013
</metadata>
<g transform="translate(0.000000,700.000000) scale(0.100000,-0.100000)"
fill="#000000" stroke="none">
<path d="M480 6985 c-207 -43 -362 -153 -437 -311 l-38 -79 0 -3095 0 -3095
31 -65 c45 -94 86 -144 162 -200 81 -60 187 -106 289 -126 112 -21 5914 -21
6026 0 102 20 208 66 289 126 76 56 117 106 162 200 l31 65 0 3095 0 3095 -38
79 c-67 141 -206 249 -392 303 -57 17 -228 18 -3040 20 -2449 1 -2992 -1
-3045 -12z m6031 -215 c80 -25 154 -80 194 -144 l30 -49 3 -719 2 -718 -3240
0 -3240 0 2 718 3 719 30 49 c39 62 114 119 190 144 59 18 126 19 3011 19
2916 1 2953 1 3015 -19z m-1649 -2302 c89 -45 138 -94 182 -187 l31 -66 0
-395 c0 -390 0 -396 -23 -452 -33 -81 -108 -160 -190 -200 -66 -33 -68 -33
-243 -38 -170 -5 -179 -6 -203 -29 -35 -33 -40 -69 -21 -157 23 -99 16 -227
-15 -307 -23 -62 -106 -156 -165 -189 l-30 -16 0 146 c0 105 -5 168 -18 220
-34 140 -101 292 -139 314 -14 8 -76 15 -153 18 -116 5 -136 9 -190 35 -76 36
-149 109 -183 183 l-27 57 0 415 c0 405 1 416 22 462 27 59 103 141 161 176
85 49 110 51 638 49 l490 -2 76 -37z m-2010 -2161 c171 -611 184 -674 167
-824 -37 -343 -268 -631 -586 -733 -235 -76 -456 -59 -675 51 -174 88 -331
256 -401 432 -14 35 -89 291 -167 568 -77 277 -143 511 -146 520 -3 12 11 20
63 34 38 9 104 34 149 55 99 48 197 141 245 235 l33 63 41 -24 c125 -78 256
-115 405 -115 202 -1 415 76 611 222 37 27 72 56 79 64 7 8 15 15 19 15 3 0
77 -253 163 -563z m404 205 c99 -51 145 -164 112 -276 -18 -60 -92 -131 -159
-150 -29 -9 -58 -16 -64 -16 -5 0 -29 69 -53 153 -23 83 -50 182 -61 219 l-19
67 46 15 c60 19 147 14 198 -12z m-2257 -806 c34 -120 60 -220 58 -222 -13
-13 -129 -34 -162 -28 -194 31 -268 264 -126 398 24 23 159 82 167 73 1 -1 30
-100 63 -221z m3564 48 c107 -28 195 -79 277 -163 117 -119 170 -247 170 -411
0 -107 -19 -183 -70 -283 -45 -88 -49 -123 -20 -159 l20 -26 -48 -44 c-62 -58
-102 -84 -110 -72 -15 21 -58 44 -84 44 -15 0 -50 -9 -77 -19 -27 -11 -87 -25
-133 -32 -69 -9 -97 -9 -168 5 -289 54 -489 290 -492 580 -2 168 52 299 176
421 86 85 162 131 267 159 73 20 217 20 292 0z"/>
<path d="M1970 6355 c-25 -26 -57 -53 -73 -61 -27 -14 -27 -15 -11 -46 21 -40
107 -123 162 -155 42 -25 43 -25 58 -7 30 38 85 166 91 213 l5 47 -57 22 c-31
12 -73 25 -93 28 -34 5 -41 1 -82 -41z"/>
<path d="M1402 6369 c-115 -15 -212 -40 -221 -58 -25 -46 -88 -434 -100 -612
l-7 -114 32 -31 c30 -29 107 -64 140 -64 8 0 15 19 19 48 8 60 38 128 96 217
49 74 119 147 105 110 -4 -11 -14 -51 -23 -90 -19 -87 -12 -171 17 -223 25
-45 83 -82 127 -82 29 0 30 1 42 81 16 104 54 221 92 283 l31 50 -24 50 c-58
125 -132 181 -201 152 -49 -20 -110 -78 -158 -149 -31 -48 -39 -55 -33 -32 18
77 86 289 118 368 20 48 36 92 36 98 0 10 2 10 -88 -2z"/>
<path d="M5505 6364 c-49 -8 -112 -21 -141 -29 l-51 -15 -26 -132 c-38 -191
-54 -304 -68 -461 l-12 -137 24 -26 c27 -30 113 -74 145 -74 18 0 22 7 27 55
6 64 60 172 131 264 72 93 76 93 55 4 -48 -199 -1 -326 125 -340 l46 -6 0 40
c0 66 46 228 88 308 l39 74 -34 63 c-40 75 -96 135 -134 143 -55 12 -148 -58
-219 -165 -16 -25 -30 -41 -30 -37 0 32 90 311 134 414 14 34 26 65 26 68 0 7
-21 5 -125 -11z"/>
<path d="M3680 6339 c-93 -18 -242 -62 -260 -78 -17 -15 -90 -289 -161 -605
l-22 -99 24 -20 c24 -20 126 -70 165 -81 19 -6 23 2 49 101 15 60 29 109 30
111 1 1 22 -23 46 -55 62 -83 132 -163 144 -163 25 0 133 61 161 91 34 38 64
80 64 91 0 4 -17 10 -37 14 -45 8 -174 53 -186 64 -5 4 13 15 40 24 71 24 166
90 213 148 22 28 40 56 40 63 0 22 -72 110 -125 154 l-49 41 -45 -86 c-49 -96
-119 -178 -179 -212 l-41 -23 38 113 c43 128 98 262 141 349 17 32 30 61 30
64 0 7 -24 5 -80 -6z"/>
<path d="M2366 6251 c-20 -39 -47 -98 -60 -133 -21 -58 -27 -65 -79 -93 -31
-17 -59 -34 -63 -38 -4 -4 9 -21 29 -38 56 -46 61 -62 37 -109 -11 -21 -32
-81 -47 -132 l-26 -92 37 -32 c35 -30 153 -93 204 -108 21 -7 22 -5 22 67 0
71 27 317 36 326 2 3 37 -7 78 -21 l73 -26 34 151 c19 84 32 153 29 155 -3 1
-41 -1 -84 -6 l-79 -8 -48 103 c-26 57 -50 103 -52 103 -3 0 -21 -31 -41 -69z"/>
<path d="M4922 6270 c-17 -30 -46 -92 -64 -138 l-32 -83 -64 -30 -63 -31 50
-48 51 -48 -29 -69 c-15 -37 -36 -99 -46 -137 l-19 -69 39 -34 c38 -32 154
-94 203 -108 22 -6 22 -5 22 87 0 86 24 295 35 306 2 3 36 -6 75 -20 39 -14
72 -23 74 -19 8 14 68 292 64 297 -3 2 -40 0 -82 -4 l-78 -8 -52 105 -53 105
-31 -54z"/>
<path d="M2730 6078 c-52 -244 -87 -466 -77 -492 7 -17 158 -93 205 -102 l32
-6 0 75 c0 73 1 76 45 135 65 86 68 88 99 57 30 -30 121 -75 152 -75 19 0 21
7 27 93 3 55 13 113 25 144 l20 52 -94 71 c-51 38 -96 70 -99 70 -4 0 -40 -69
-81 -152 -73 -151 -74 -152 -68 -98 3 30 12 83 20 118 8 35 14 69 14 76 0 18
-158 86 -202 86 -3 0 -11 -24 -18 -52z"/>
<path d="M4473 6095 c-16 -33 -19 -35 -48 -28 -151 39 -323 -50 -404 -210 -37
-74 -57 -159 -47 -208 14 -79 116 -169 190 -169 36 0 79 23 132 72 l44 40 10
-28 c15 -38 48 -74 84 -89 25 -11 36 -9 98 19 67 30 69 32 63 61 -36 173 -34
203 19 310 61 124 61 124 24 169 -33 40 -112 96 -135 96 -7 0 -21 -16 -30 -35z
m-74 -168 c-11 -29 -30 -91 -42 -137 -22 -82 -24 -86 -71 -117 -67 -45 -86
-44 -86 6 0 78 68 195 152 261 27 22 54 40 59 40 4 0 -1 -24 -12 -53z"/>
<path d="M6397 6094 c-15 -30 -22 -35 -40 -30 -91 26 -182 10 -270 -46 -91
-58 -164 -172 -186 -289 -13 -75 -2 -114 51 -174 86 -97 164 -99 271 -5 l43
39 13 -35 c11 -32 56 -74 92 -86 8 -3 47 9 86 27 l71 33 -14 58 c-7 33 -14 91
-14 131 0 64 4 80 34 135 19 35 40 82 47 106 12 42 12 43 -22 79 -45 48 -108
93 -129 93 -9 0 -24 -16 -33 -36z m-57 -117 c0 -2 -13 -42 -29 -89 -16 -47
-32 -104 -36 -127 -8 -46 -41 -85 -92 -107 -58 -25 -67 -20 -59 34 10 79 59
164 133 231 57 52 83 71 83 58z"/>
<path d="M972 6088 c-69 -40 -150 -47 -258 -23 l-79 17 -52 -56 c-83 -89 -148
-242 -169 -397 -6 -45 -5 -47 37 -81 118 -96 221 -116 331 -65 93 42 146 84
178 140 32 57 40 103 15 94 -23 -9 -238 -74 -262 -80 -20 -4 -23 -1 -23 26 0
46 26 161 44 195 l15 30 88 -44 c130 -64 128 -64 158 -5 31 63 55 159 55 229
0 62 -5 63 -78 20z"/>
<path d="M1840 6056 c-25 -68 -60 -312 -60 -427 0 -47 2 -50 48 -84 45 -33
153 -95 166 -95 3 0 6 20 6 44 0 112 45 293 106 425 19 41 34 75 34 77 0 5
-138 54 -196 68 -82 21 -93 20 -104 -8z"/>
<path d="M3798 4134 c-55 -29 -65 -102 -22 -153 l26 -31 519 0 c509 0 519 0
539 20 49 49 48 113 -2 155 l-30 25 -501 0 c-424 -1 -506 -3 -529 -16z"/>
<path d="M3779 3681 c-23 -23 -29 -38 -29 -71 0 -33 6 -48 29 -71 l29 -29 332
0 332 0 29 29 c23 23 29 38 29 71 0 33 -6 48 -29 71 l-29 29 -332 0 -332 0
-29 -29z"/>
<path d="M2115 2486 c-38 -38 -40 -67 -10 -179 32 -119 47 -150 77 -171 62
-44 158 8 158 84 0 31 -58 231 -72 249 -25 32 -44 40 -86 41 -32 0 -49 -6 -67
-24z"/>
<path d="M1653 2365 c-20 -8 -39 -28 -50 -49 -15 -33 -15 -39 1 -98 50 -185
56 -198 89 -218 48 -30 83 -26 123 14 42 42 43 66 8 189 -35 120 -48 146 -89
163 -41 17 -42 17 -82 -1z"/>
<path d="M2459 1931 c-41 -13 -69 -30 -158 -98 -135 -103 -169 -117 -281 -118
-52 0 -138 4 -190 8 -89 8 -98 7 -139 -15 -25 -13 -54 -35 -64 -50 -47 -64
-24 -207 52 -326 107 -164 271 -255 461 -256 258 0 476 174 536 430 27 116 6
274 -48 354 -38 56 -113 88 -169 71z"/>
<path d="M4448 1624 c-15 -8 -32 -23 -38 -33 -20 -38 -120 -496 -115 -523 17
-76 115 -105 175 -50 28 25 34 46 86 274 52 224 56 249 44 278 -25 60 -96 85
-152 54z"/>
<path d="M4293 930 c-37 -15 -65 -69 -59 -115 14 -118 175 -129 206 -15 25 91
-59 165 -147 130z"/>
</g>
</svg>
