<?xml version="1.0" standalone="no"?>
<!DOCTYPE svg PUBLIC "-//W3C//DTD SVG 20010904//EN"
 "http://www.w3.org/TR/2001/REC-SVG-20010904/DTD/svg10.dtd">
<svg version="1.0" xmlns="http://www.w3.org/2000/svg"
 width="700.000000pt" height="700.000000pt" viewBox="0 0 700.000000 700.000000"
 preserveAspectRatio="xMidYMid meet">
<metadata>
Created by potrace 1.11, written by Peter Selinger 2001-2013
</metadata>
<g transform="translate(0.000000,700.000000) scale(0.100000,-0.100000)"
fill="#000000" stroke="none">
<path d="M1580 6984 c-139 -38 -249 -156 -280 -302 -7 -31 -9 -1123 -8 -3212
3 -3128 3 -3166 23 -3213 42 -103 142 -200 240 -234 47 -17 165 -18 1956 -18
l1905 0 76 37 c91 45 147 103 191 196 l32 67 0 3196 0 3195 -38 76 c-45 92
-122 166 -207 201 l-55 22 -1890 2 c-1640 2 -1897 0 -1945 -13z m3845 -171
c47 -25 85 -64 111 -113 18 -33 19 -71 22 -602 l3 -568 -2056 0 -2056 0 3 568
c3 531 4 569 22 602 36 68 92 114 161 131 17 4 867 6 1890 6 l1860 -2 40 -22z
m-324 -1800 c40 -13 69 -32 110 -73 87 -86 89 -97 89 -459 l0 -306 -28 -60
c-32 -67 -83 -118 -151 -149 -37 -16 -71 -21 -171 -24 -158 -4 -166 -6 -186
-44 -14 -28 -15 -39 -4 -87 21 -92 16 -201 -13 -264 -26 -57 -79 -117 -125
-141 l-27 -14 4 81 c2 44 -2 113 -9 154 -19 117 -79 278 -112 300 -7 4 -61 11
-119 14 -88 4 -116 10 -162 33 -60 29 -104 73 -139 139 -22 41 -23 52 -26 351
-3 268 -1 316 14 362 28 88 109 166 204 195 14 4 199 8 411 8 339 1 393 -1
440 -16z m-1562 -1705 c66 -234 124 -452 130 -484 26 -139 4 -281 -66 -423
-78 -158 -212 -276 -385 -339 -67 -24 -86 -27 -223 -27 -138 0 -156 2 -223 27
-188 68 -344 215 -411 386 -11 27 -70 228 -131 448 -62 219 -114 404 -117 410
-2 6 19 16 50 23 131 29 265 128 316 233 l22 47 72 -39 c40 -21 100 -46 133
-54 79 -20 228 -20 308 0 88 22 271 114 341 172 33 27 61 49 62 48 1 -1 56
-194 122 -428z m320 148 c42 -22 89 -81 97 -121 15 -84 -25 -169 -98 -203 -89
-42 -85 -47 -134 128 -55 196 -55 192 -24 201 44 12 130 9 159 -5z m-1813
-523 c9 -32 31 -110 49 -173 37 -133 38 -130 -59 -137 -73 -5 -114 13 -159 68
-31 40 -43 96 -33 154 12 65 96 132 178 144 4 1 15 -25 24 -56z m2825 -73
c118 -22 234 -100 301 -204 96 -149 103 -323 18 -484 -34 -64 -37 -88 -15
-119 18 -25 12 -34 -56 -86 l-35 -26 -40 19 c-40 20 -40 20 -105 0 -86 -28
-161 -34 -234 -21 -195 37 -352 195 -385 390 -52 311 237 590 551 531z m689
-1933 c0 -619 0 -620 -74 -693 -80 -80 79 -75 -2007 -72 -1787 3 -1855 4
-1889 22 -49 26 -88 64 -113 111 -22 39 -22 48 -25 608 l-3 567 2056 0 2055 0
0 -543z"/>
<path d="M1705 6349 c-44 -17 -84 -58 -96 -99 -6 -20 -10 -75 -8 -123 4 -91
17 -119 71 -160 38 -28 131 -33 193 -10 56 21 98 71 93 113 -3 22 -8 25 -50
28 -43 3 -48 1 -63 -27 -28 -55 -105 -55 -124 0 -26 76 -7 185 35 195 37 9 74
-4 86 -32 12 -27 40 -37 84 -32 22 2 30 9 32 28 3 34 -30 85 -70 106 -39 20
-142 28 -183 13z"/>
<path d="M2653 6350 c-23 -10 -39 -50 -30 -74 4 -10 24 -16 59 -18 l53 -3 3
-152 3 -153 55 0 55 0 -3 155 -3 154 60 3 60 3 0 45 0 45 -145 2 c-80 1 -155
-2 -167 -7z"/>
<path d="M3050 6348 l-25 -14 -3 -192 -2 -192 55 0 55 0 0 58 c0 32 -5 63 -12
70 -9 9 -4 12 25 12 36 0 38 -2 72 -70 l35 -70 55 0 c35 0 55 4 55 12 0 6 -16
40 -36 75 l-35 64 30 35 c17 19 32 45 33 57 7 115 -39 155 -190 163 -62 4 -94
1 -112 -8z m178 -90 c16 -16 15 -53 -2 -67 -8 -7 -34 -11 -58 -9 -42 3 -43 4
-49 46 l-5 42 51 0 c28 0 56 -5 63 -12z"/>
<path d="M3441 6341 c-20 -20 -21 -33 -21 -206 l0 -185 55 0 54 0 3 72 3 72
55 -72 54 -71 113 0 c100 0 114 2 123 19 5 10 7 25 4 33 -4 11 9 16 58 20 35
4 72 8 82 9 14 2 22 -7 33 -39 l15 -43 54 0 c30 0 54 2 54 4 0 2 -31 90 -70
197 -38 106 -70 195 -70 196 0 2 -30 3 -67 1 l-67 -3 -66 -182 c-36 -100 -69
-185 -72 -188 -3 -3 -35 35 -72 84 -37 49 -72 92 -79 95 -9 3 -8 8 3 18 29 24
130 160 130 174 0 10 -13 14 -47 14 -27 0 -53 -4 -60 -8 -6 -4 -34 -35 -62
-70 l-50 -63 -3 68 -3 68 -32 3 c-22 2 -38 -3 -52 -17z m569 -208 c0 -15 -7
-19 -52 -27 l-37 -7 20 58 c10 32 22 65 25 73 5 15 44 -70 44 -97z"/>
<path d="M4223 6345 c-16 -12 -23 -26 -23 -51 l0 -34 55 0 54 0 3 -152 3 -153
55 0 55 0 3 133 c1 80 -2 140 -8 152 -10 19 -7 20 55 20 l66 0 -3 48 -3 47
-145 3 c-119 2 -149 0 -167 -13z"/>
<path d="M2030 6331 c-6 -12 -10 -95 -10 -200 l0 -181 56 0 56 0 -4 75 c-3 69
-2 75 17 75 11 0 44 3 73 6 l52 7 0 -82 0 -81 55 0 55 0 0 200 0 200 -43 0
c-56 0 -67 -13 -67 -76 0 -64 -15 -78 -84 -79 l-51 0 -3 78 -3 77 -44 0 c-34
0 -47 -5 -55 -19z"/>
<path d="M2472 6338 c-8 -8 -12 -67 -12 -200 l0 -188 55 0 55 0 0 200 0 200
-43 0 c-24 0 -48 -5 -55 -12z"/>
<path d="M4606 6334 c-13 -13 -16 -46 -16 -200 l0 -184 56 0 56 0 -4 75 c-3
69 -2 75 17 75 11 0 44 3 73 6 l52 7 0 -82 0 -81 55 0 55 0 0 200 0 200 -43 0
c-24 0 -48 -5 -55 -12 -7 -7 -12 -38 -12 -70 l0 -57 -38 -11 c-20 -7 -51 -10
-67 -8 l-30 3 -3 78 -3 77 -39 0 c-22 0 -45 -7 -54 -16z"/>
<path d="M5122 6323 c-5 -15 -37 -104 -71 -196 -34 -93 -61 -170 -61 -173 0
-2 25 -4 55 -4 50 0 55 2 61 24 3 14 3 29 0 34 -3 6 21 12 57 14 34 3 70 8 79
13 14 6 22 -2 38 -39 19 -46 19 -46 70 -46 27 0 50 4 50 9 0 5 -31 94 -69 198
l-68 188 -66 3 c-63 3 -65 2 -75 -25z m97 -142 c11 -30 19 -57 17 -59 -7 -6
-80 -21 -84 -17 -2 2 6 34 18 70 12 36 23 65 25 63 2 -2 13 -27 24 -57z"/>
<path d="M4294 4738 c-23 -11 -44 -48 -44 -77 0 -10 9 -30 21 -45 l20 -26 410
0 410 0 24 25 c33 33 32 70 -4 106 l-29 29 -394 -1 c-249 0 -401 -4 -414 -11z"/>
<path d="M4275 4375 c-27 -26 -31 -51 -14 -89 20 -43 48 -47 318 -44 252 3
253 3 272 27 25 30 24 72 -2 105 l-20 26 -265 0 -265 0 -24 -25z"/>
<path d="M2979 3446 c-48 -27 -53 -58 -24 -160 15 -50 33 -101 40 -113 20 -30
69 -39 101 -18 47 31 50 55 20 165 -16 54 -36 105 -45 114 -25 22 -63 27 -92
12z"/>
<path d="M2595 3338 c-29 -17 -44 -40 -45 -67 0 -34 39 -171 56 -199 21 -32
56 -44 94 -31 56 20 62 56 29 176 -25 90 -35 108 -66 122 -30 14 -43 13 -68
-1z"/>
<path d="M3205 2982 c-22 -11 -67 -41 -100 -67 -119 -93 -138 -97 -381 -85
-65 3 -86 1 -107 -13 -70 -45 -80 -132 -29 -242 74 -158 224 -255 395 -255
262 0 462 230 426 490 -22 153 -102 220 -204 172z"/>
<path d="M4790 2742 c-17 -14 -31 -57 -66 -207 -24 -105 -44 -200 -44 -213 0
-72 124 -99 159 -34 13 24 91 363 91 395 0 13 -9 36 -21 51 -25 32 -84 36
-119 8z"/>
<path d="M4669 2197 c-45 -34 -48 -112 -6 -142 33 -23 90 -19 115 8 31 33 30
96 -1 125 -26 25 -82 29 -108 9z"/>
<path d="M2125 1064 c-94 -35 -131 -115 -123 -269 8 -141 53 -203 165 -224
138 -27 275 44 277 141 l1 43 -57 3 c-57 3 -57 3 -82 -37 -44 -68 -128 -64
-153 9 -15 44 -16 133 -3 182 12 43 34 58 84 58 37 0 62 -19 77 -57 8 -21 15
-23 74 -23 l65 0 0 30 c0 119 -178 198 -325 144z"/>
<path d="M2625 1061 c-53 -24 -90 -66 -105 -117 -18 -59 -9 -239 13 -282 70
-131 337 -128 403 5 23 46 32 208 15 271 -15 53 -55 100 -106 123 -54 25 -166
25 -220 0z m171 -112 c16 -18 19 -37 19 -125 0 -94 -2 -106 -22 -126 -30 -30
-86 -30 -116 0 -20 20 -22 32 -22 126 0 88 3 107 19 125 26 29 96 29 122 0z"/>
<path d="M3083 1070 c-40 -16 -44 -39 -41 -272 l3 -223 60 0 60 0 5 133 5 132
40 -72 c23 -42 48 -74 58 -76 42 -8 62 8 97 75 l35 68 5 -130 5 -130 60 0 60
0 0 250 0 250 -34 3 c-66 7 -76 -2 -141 -118 -34 -60 -65 -110 -68 -110 -4 0
-32 46 -62 101 -30 56 -61 108 -68 115 -15 16 -46 17 -79 4z"/>
<path d="M3685 1070 c-44 -17 -46 -26 -43 -266 l3 -229 65 0 65 0 3 244 c2
189 -1 246 -10 253 -16 10 -57 9 -83 -2z"/>
<path d="M3986 1066 c-97 -36 -130 -106 -125 -264 4 -98 7 -113 31 -149 38
-58 101 -86 192 -86 86 1 145 23 185 69 30 33 49 93 36 113 -3 6 -30 11 -60
11 -55 0 -78 -12 -90 -49 -9 -29 -67 -46 -102 -29 -44 21 -54 52 -51 156 3 85
5 96 27 113 17 14 36 19 65 17 35 -3 45 -9 65 -41 25 -38 25 -38 85 -35 57 3
61 5 64 28 4 40 -38 102 -88 129 -55 31 -174 39 -234 17z"/>
<path d="M4479 1070 c-70 -21 -109 -71 -109 -140 0 -85 45 -124 174 -154 83
-20 106 -31 106 -54 0 -30 -22 -42 -75 -42 -42 0 -56 5 -75 25 -22 23 -31 26
-85 23 -59 -3 -60 -4 -58 -31 3 -38 36 -81 80 -103 57 -28 224 -27 273 2 78
45 103 136 57 205 -22 34 -42 43 -207 91 -40 12 -45 16 -45 43 0 29 2 30 46
33 35 2 49 -2 64 -18 15 -16 30 -20 82 -20 60 0 63 1 63 24 0 33 -46 85 -95
107 -42 19 -147 24 -196 9z"/>
</g>
</svg>
