<svg width="512" height="512" viewBox="0 0 512 512" fill="none" xmlns="http://www.w3.org/2000/svg">
<g clip-path="url(#clip0)">
<path d="M453.526 36.77V475.23C453.526 491.39 440.426 504.5 424.256 504.5H87.7459C71.5759 504.5 58.4659 491.39 58.4659 475.23V36.77C58.4659 20.61 71.5759 7.5 87.7459 7.5H424.256C440.426 7.5 453.526 20.61 453.526 36.77V36.77Z" fill="#DA4A54"/>
<path d="M453.526 36.77V143.48H58.4659V36.77C58.4659 20.61 71.5759 7.5 87.7459 7.5H424.256C440.426 7.5 453.526 20.61 453.526 36.77V36.77Z" fill="#FFD064"/>
<path d="M287.942 366.799L125.262 412.47C112.199 416.137 98.6359 408.521 94.9679 395.457C91.3009 382.394 98.9179 368.831 111.981 365.163L274.661 319.492C287.724 315.825 301.287 323.442 304.955 336.505C308.623 349.569 301.006 363.132 287.942 366.799Z" fill="#D2A572"/>
<path d="M227.923 465.578C190.102 476.196 150.834 454.143 140.216 416.322L122.002 351.445C111.384 313.624 133.437 274.356 171.258 263.738C209.079 253.12 248.347 275.173 258.965 312.994L277.179 377.871C287.797 415.693 265.744 454.961 227.923 465.578V465.578Z" fill="#ECCDA0"/>
<path d="M244.863 458.373C239.672 461.438 234.013 463.875 227.93 465.582C190.103 476.201 150.836 454.149 140.216 416.322L122.005 351.453C111.386 313.626 133.438 274.359 171.265 263.74C177.348 262.032 183.449 261.167 189.476 261.083C162.337 277.077 148.238 309.843 157.149 341.587L175.36 406.456C184.272 438.2 213.365 458.84 244.863 458.373V458.373Z" fill="#EAB57F"/>
<path d="M108.796 266.774L114.813 265.085C133.061 259.962 152.007 270.602 157.13 288.85L157.201 289.104C162.324 307.352 151.684 326.298 133.436 331.421L127.419 333.11C109.171 338.233 90.2249 327.593 85.1019 309.345L85.0309 309.091C79.9079 290.842 90.5479 271.896 108.796 266.774V266.774Z" fill="#5E6B75"/>
<path d="M141.921 327.735C139.333 329.316 136.489 330.559 133.438 331.416L127.427 333.104C109.176 338.228 90.2269 327.596 85.1029 309.344L85.0319 309.092C79.9079 290.841 90.5549 271.9 108.806 266.776L114.817 265.088C117.868 264.231 120.944 263.813 123.977 263.816C111.084 271.582 104.419 287.251 108.686 302.451L108.757 302.703C113.023 317.903 126.869 327.814 141.921 327.735V327.735Z" fill="#4D5961"/>
<path d="M148.692 280.838C156.056 307.068 183.289 322.362 209.519 314.998C252.182 303.021 277.058 258.726 265.081 216.063L263.314 209.769L172.892 235.154C153.251 240.668 142.22 261.493 148.692 280.838V280.838Z" fill="#5E6B75"/>
<path d="M224.503 309.132C219.808 311.539 214.794 313.516 209.517 314.998C183.282 322.363 156.058 307.074 148.692 280.839C142.221 261.493 153.257 240.674 172.896 235.16L200.359 227.45C180.72 232.963 169.685 253.783 176.155 273.129C182.351 295.2 202.609 309.524 224.503 309.132Z" fill="#4D5961"/>
<path d="M238.933 384.676C234.086 367.412 224.938 388.605 207.674 393.452C190.41 398.299 171.568 384.964 176.415 402.228C181.262 419.492 199.186 429.558 216.45 424.711C233.714 419.864 243.78 401.94 238.933 384.676V384.676Z" fill="#4D5961"/>
<path d="M394.662 174.75H332.222C312.733 174.75 296.934 190.549 296.934 210.038V255.442C296.934 274.931 312.733 290.73 332.222 290.73H341.523C357.541 320.072 345.786 346.306 345.786 346.306C384.726 336.403 383.575 307.9 378.885 290.73H394.662C414.151 290.73 429.95 274.931 429.95 255.442V210.038C429.95 190.549 414.151 174.75 394.662 174.75V174.75Z" fill="#F7F9F9"/>
<path d="M374.23 477.174C402.605 477.174 425.608 454.171 425.608 425.796C425.608 397.421 402.605 374.418 374.23 374.418C345.855 374.418 322.852 397.421 322.852 425.796C322.852 454.171 345.855 477.174 374.23 477.174Z" fill="#5986CB"/>
<path d="M424.255 0H87.745C67.467 0 50.97 16.497 50.97 36.773V475.226C50.97 495.503 67.467 512 87.745 512H424.256C444.533 512 461.03 495.503 461.03 475.227V36.773C461.03 16.497 444.533 0 424.255 0V0ZM87.745 15H424.256C436.263 15 446.03 24.768 446.03 36.773V135.977H65.97V36.773C65.97 24.768 75.738 15 87.745 15V15ZM424.255 497H87.745C75.738 497 65.971 487.232 65.971 475.227V150.978H446.031V475.227C446.03 487.232 436.262 497 424.255 497Z" fill="black"/>
<path d="M297.004 315.186C289.536 310.994 280.883 309.959 272.636 312.276L267.002 313.858L259.725 287.936C269.783 273.552 275.588 256.157 275.588 237.791C275.588 229.783 274.481 221.788 272.301 214.041L270.541 207.751C270.005 205.834 268.729 204.209 266.994 203.234C265.259 202.258 263.209 202.013 261.291 202.551L212.77 216.171C208.783 217.29 206.457 221.431 207.577 225.419C208.696 229.407 212.835 231.731 216.825 230.613L258.113 219.023C259.756 225.167 260.588 231.477 260.588 237.792C260.588 270.225 238.754 299.005 207.491 307.781C185.288 314.013 162.146 301.016 155.909 278.814C155.876 278.696 155.84 278.58 155.802 278.464C153.329 271.072 153.977 263.21 157.623 256.324C161.27 249.437 167.412 244.482 174.916 242.373L187.946 238.713C191.933 237.593 194.258 233.452 193.138 229.464C192.018 225.476 187.883 223.151 183.889 224.271L170.858 227.931C159.363 231.162 149.955 238.752 144.367 249.302C142.607 252.625 141.307 256.097 140.465 259.648C131.844 255.961 122.132 255.247 112.788 257.87L106.766 259.561C84.568 265.793 71.578 288.923 77.807 311.111L77.88 311.374C82.406 327.494 95.84 338.757 111.36 341.331L115.581 356.368L109.955 357.947C101.701 360.264 94.847 365.652 90.655 373.115C86.463 380.579 85.429 389.236 87.747 397.491C91.715 411.622 104.616 420.883 118.627 420.883C121.489 420.883 124.4 420.496 127.288 419.685L132.913 418.106L132.981 418.346C138.659 438.572 151.872 455.375 170.186 465.662C182.109 472.359 195.262 475.771 208.573 475.771C215.706 475.771 222.886 474.79 229.943 472.809C250.17 467.131 266.973 453.917 277.258 435.602C287.544 417.288 290.081 396.062 284.403 375.836L284.335 375.596L289.97 374.014C298.224 371.697 305.078 366.309 309.27 358.845C313.462 351.379 314.497 342.727 312.181 334.484C309.865 326.233 304.475 319.379 297.004 315.186V315.186ZM92.324 307.329L92.251 307.066C88.255 292.831 96.585 277.998 110.82 274.001L116.842 272.31C124.855 270.061 133.286 271.638 139.901 276.493C140.267 278.692 140.803 280.88 141.516 283.043C143.486 289.972 146.673 296.234 150.774 301.67C149.48 312.352 141.963 321.233 131.407 324.197L125.385 325.888C111.156 329.885 96.318 321.554 92.324 307.329V307.329ZM123.233 405.244C114.171 407.787 104.731 402.491 102.188 393.437C100.954 389.04 101.502 384.432 103.733 380.46C105.964 376.488 109.613 373.622 114.009 372.388L119.634 370.809L128.858 403.664L123.233 405.244ZM264.179 428.258C255.855 443.079 242.256 453.772 225.887 458.368C209.522 462.961 192.349 460.908 177.531 452.584C162.71 444.26 152.017 430.661 147.422 414.292L126.837 340.965C127.706 340.78 128.575 340.573 129.442 340.33L135.464 338.639C148.426 335 158.453 325.634 163.117 313.679C172.643 320.487 184.195 324.342 196.211 324.341C201.278 324.341 206.432 323.656 211.545 322.221C225.498 318.304 237.887 311.076 247.968 301.55L269.961 379.891C274.556 396.259 272.502 413.437 264.179 428.258V428.258ZM296.191 351.5C293.961 355.471 290.311 358.338 285.915 359.572L280.28 361.154L271.056 328.299L276.691 326.717C281.077 325.485 285.686 326.034 289.662 328.266C293.638 330.497 296.506 334.146 297.739 338.539C298.971 342.925 298.42 347.529 296.191 351.5Z" fill="black"/>
<path d="M178.875 367.048C179.546 367.048 180.229 366.957 180.906 366.767C184.894 365.647 187.219 361.507 186.099 357.519L182.215 343.685C181.095 339.697 176.955 337.37 172.967 338.492C168.979 339.612 166.654 343.752 167.774 347.74L171.658 361.574C172.587 364.883 175.597 367.048 178.875 367.048V367.048Z" fill="black"/>
<path d="M207.395 351.54C208.325 354.85 211.334 357.015 214.612 357.015C215.283 357.015 215.966 356.924 216.643 356.734C220.631 355.614 222.956 351.474 221.836 347.486L217.952 333.653C216.832 329.665 212.69 327.339 208.704 328.46C204.716 329.58 202.391 333.72 203.511 337.708L207.395 351.54Z" fill="black"/>
<path d="M237.06 371.028C230.597 368.956 225.146 373.343 219.876 377.583C215.712 380.933 210.992 384.729 205.647 386.23C200.3 387.73 194.294 386.945 188.996 386.252C182.29 385.374 175.355 384.467 170.911 389.598C166.964 394.157 168.041 400.145 169.194 404.253C172.08 414.531 178.795 423.071 188.103 428.298C194.164 431.701 200.849 433.435 207.614 433.435C211.24 433.435 214.89 432.936 218.477 431.929C239.695 425.972 252.111 403.864 246.154 382.646C245 378.541 242.803 372.867 237.06 371.028V371.028ZM214.422 417.49C208.001 419.293 201.262 418.487 195.447 415.221C189.792 412.045 185.669 406.912 183.788 400.725C184.872 400.841 186.041 400.994 187.05 401.126C193.107 401.919 201.402 403.004 209.701 400.672C218.003 398.341 224.519 393.098 229.278 389.27C230.07 388.633 230.989 387.894 231.853 387.231C235.226 400.322 227.5 413.818 214.422 417.49V417.49Z" fill="black"/>
<path d="M394.662 167.25H332.223C308.629 167.25 289.434 186.445 289.434 210.039V255.443C289.434 279.036 308.629 298.231 332.223 298.231H336.907C347.912 322.089 339.32 342.376 338.942 343.24C337.766 345.865 338.195 348.933 340.047 351.135C341.491 352.853 343.604 353.808 345.786 353.808C346.401 353.808 347.021 353.732 347.635 353.576C364.337 349.328 376.158 341.42 382.772 330.07C387.961 321.161 389.753 310.288 388.084 298.232H394.663C418.257 298.232 437.451 279.037 437.451 255.444V210.04C437.45 186.445 418.255 167.25 394.662 167.25V167.25ZM422.45 255.442C422.45 270.764 409.984 283.23 394.662 283.23H378.885C376.547 283.23 374.342 284.32 372.924 286.179C371.505 288.038 371.034 290.451 371.651 292.707C373.912 300.984 375.428 312.875 369.811 322.518C367.014 327.319 362.606 331.279 356.642 334.363C358.378 322.698 358.118 305.474 348.107 287.136C346.793 284.728 344.268 283.23 341.524 283.23H332.223C316.9 283.23 304.434 270.764 304.434 255.442V210.038C304.434 194.715 316.9 182.249 332.223 182.249H394.662C409.984 182.249 422.45 194.715 422.45 210.038V255.442Z" fill="black"/>
<path d="M401.653 208.45H332.485C328.342 208.45 324.985 211.808 324.985 215.95C324.985 220.092 328.342 223.45 332.485 223.45H401.653C405.796 223.45 409.153 220.092 409.153 215.95C409.153 211.808 405.795 208.45 401.653 208.45Z" fill="black"/>
<path d="M375.049 240.375H332.485C328.342 240.375 324.985 243.733 324.985 247.875C324.985 252.017 328.342 255.375 332.485 255.375H375.049C379.192 255.375 382.549 252.017 382.549 247.875C382.549 243.733 379.192 240.375 375.049 240.375Z" fill="black"/>
<path d="M387.532 368.444C355.896 361.108 324.205 380.872 316.872 412.496C309.537 444.122 329.303 475.821 360.935 483.157C365.369 484.184 369.845 484.695 374.3 484.695C382.168 484.695 389.968 483.101 397.347 479.946C401.156 478.317 402.922 473.909 401.293 470.101C399.665 466.293 395.258 464.525 391.448 466.154C382.842 469.835 373.464 470.662 364.321 468.544C340.748 463.077 326.016 439.454 331.482 415.884C336.948 392.318 360.567 377.59 384.145 383.056C395.559 385.699 405.26 392.632 411.461 402.577C417.661 412.523 419.618 424.287 416.97 435.705C415.8 440.752 413.783 445.49 410.977 449.788C408.712 453.256 409.687 457.903 413.155 460.168C416.621 462.432 421.269 461.459 423.536 457.99C427.307 452.216 430.015 445.858 431.583 439.093C435.137 423.773 432.511 407.986 424.19 394.641C415.87 381.295 402.849 371.991 387.532 368.444V368.444Z" fill="black"/>
<path d="M380.078 433.783L387.514 401.712C388.45 397.677 385.937 393.648 381.902 392.712C377.869 391.774 373.838 394.289 372.901 398.324L365.465 430.395C364.529 434.43 367.042 438.459 371.077 439.395C371.647 439.527 372.217 439.59 372.778 439.59C376.189 439.591 379.274 437.249 380.078 433.783V433.783Z" fill="black"/>
<path d="M361.058 449.405L360.945 449.892C360.007 453.926 362.515 457.958 366.549 458.896C367.121 459.029 367.693 459.093 368.256 459.093C371.664 459.093 374.748 456.754 375.554 453.291L375.667 452.804C376.605 448.77 374.097 444.738 370.063 443.8C366.026 442.858 361.997 445.371 361.058 449.405Z" fill="black"/>
<path d="M115.82 67.16L118.97 65.27C119.03 66.35 119.06 67.94 119.06 70.04C119.06 74.84 117.56 79.61 114.56 84.35C109.82 83.03 105.77 81.08 102.41 78.5C100.13 82.4 98.93 87.32 98.81 93.26C100.37 93.26 104.9 92 112.4 89.48L116.09 88.22C116.09 89.3 115.73 90.65 115.01 92.27C114.35 93.83 113.45 95.24 112.31 96.5C111.17 97.76 109.31 99.11 106.73 100.55C104.15 101.93 101.09 103.01 97.55 103.79C95.15 103.43 92.45 102.47 89.45 100.91C86.45 99.29 84.32 97.52 83.06 95.6C83.48 91.7 84.2 88.1 85.22 84.8C86.3 81.44 87.44 78.74 88.64 76.7C91.22 72.56 93.38 69.86 95.12 68.6L96.2 67.7C99.74 69.08 103.22 69.77 106.64 69.77C110.06 69.77 113.12 68.9 115.82 67.16ZM148.54 67.07C152.08 67.07 155.56 71.06 158.98 79.04C156.1 82.88 153.94 88.13 152.5 94.79C151.9 97.37 151.57 99.95 151.51 102.53H150.97C146.23 102.53 143.14 100.4 141.7 96.14C141.16 94.58 140.89 92.99 140.89 91.37C140.89 87.83 141.73 83.51 143.41 78.41C139.39 81.89 135.55 87.44 131.89 95.06C131.65 96.44 131.41 98.63 131.17 101.63C127.75 100.91 125.2 99.92 123.52 98.66C121.96 97.52 121.03 96.59 120.73 95.87C120.85 90.35 121.39 84.14 122.35 77.24C123.37 70.34 124.33 64.82 125.23 60.68C126.13 56.48 126.64 54.35 126.76 54.29C129.64 53.39 132.55 52.7 135.49 52.22C138.49 51.68 140.74 51.38 142.24 51.32H144.49C140.65 59.9 137.41 69.56 134.77 80.3C137.05 76.22 139.39 73.01 141.79 70.67C144.25 68.27 146.5 67.07 148.54 67.07ZM178.716 77.6C177.516 80.12 176.556 82.52 175.836 84.8C175.116 87.02 174.456 89.81 173.856 93.17C173.316 96.47 173.046 99.02 173.046 100.82C173.046 102.56 173.046 103.58 173.046 103.88C170.286 102.62 167.886 101.33 165.846 100.01C163.806 98.69 162.426 97.67 161.706 96.95L160.716 95.87C160.716 90.41 161.046 85.34 161.706 80.66C162.366 75.98 163.026 72.68 163.686 70.76L164.676 67.79C170.076 68.75 174.906 70.13 179.166 71.93L181.326 72.83C180.786 73.49 179.916 75.08 178.716 77.6ZM178.266 68.42C177.546 68.12 176.616 67.67 175.476 67.07C174.396 66.47 172.716 65.15 170.436 63.11C168.216 61.07 166.686 58.91 165.846 56.63C167.346 55.97 168.756 55.07 170.076 53.93C171.456 52.73 172.446 51.74 173.046 50.96L173.946 49.7C177.606 50.3 180.726 51.26 183.306 52.58L184.656 53.3C184.536 54.08 184.356 55.07 184.116 56.27C183.936 57.47 183.276 59.45 182.136 62.21C181.056 64.91 179.766 66.98 178.266 68.42ZM198.82 79.49C197.44 86.81 196.75 93.5 196.75 99.56C196.75 100.64 196.78 101.66 196.84 102.62C194.2 101.78 191.38 100.55 188.38 98.93C185.44 97.31 183.37 95.69 182.17 94.07C183.61 87.95 185.08 83.45 186.58 80.57L187.3 79.04C186.46 77.48 184.96 75.92 182.8 74.36L181.63 73.55C182.83 72.65 185.29 71.36 189.01 69.68C190.03 66.5 191.14 63.65 192.34 61.13C193.54 58.55 194.47 56.78 195.13 55.82L196.12 54.38L201.88 66.08L211.33 65.18L207.37 82.55L198.82 79.49ZM244.302 74.99C243.402 76.37 242.682 78.38 242.142 81.02C241.602 83.66 241.332 85.79 241.332 87.41C241.332 89.03 241.362 90.35 241.422 91.37C239.022 91.01 236.862 90.32 234.942 89.3C233.082 88.22 231.792 87.23 231.072 86.33L230.082 84.98C226.722 88.88 224.562 91.76 223.602 93.62C223.482 97.22 223.422 100.07 223.422 102.17C221.262 101.69 219.042 100.94 216.762 99.92C214.482 98.84 212.712 97.91 211.452 97.13L209.652 95.96C210.672 87.26 212.172 78.5 214.152 69.68L215.142 65.09C217.602 65.63 219.822 66.29 221.802 67.07C223.842 67.85 225.252 68.48 226.032 68.96L227.112 69.77C225.912 73.37 224.952 78.62 224.232 85.52C225.672 82.16 228.702 75.83 233.322 66.53L244.302 74.99ZM272.893 52.76C268.753 60.38 264.703 70.4 260.743 82.82C266.923 80.3 271.933 74.24 275.773 64.64C276.013 64.82 276.313 65.06 276.673 65.36C277.093 65.6 277.813 66.14 278.833 66.98C279.853 67.82 280.753 68.66 281.533 69.5C283.813 71.84 285.223 74 285.762 75.98C285.403 76.64 284.623 77.72 283.423 79.22C282.223 80.66 280.993 81.89 279.733 82.91C278.533 83.93 276.883 84.98 274.783 86.06C272.683 87.14 270.463 87.95 268.123 88.49C272.323 90.83 276.883 92.3 281.803 92.9C281.623 93.68 281.143 94.67 280.363 95.87C279.583 97.01 278.743 98.03 277.843 98.93C277.003 99.77 275.743 100.64 274.063 101.54C272.443 102.44 270.643 103.1 268.663 103.52C265.123 100.1 261.673 95.84 258.313 90.74L254.893 103.52C252.913 103.1 250.753 102.32 248.413 101.18C246.133 100.04 244.393 98.81 243.193 97.49C246.133 84.17 248.923 72.56 251.562 62.66L252.913 57.62C256.273 56.36 259.603 55.34 262.903 54.56C266.263 53.72 268.753 53.21 270.373 53.03L272.893 52.76ZM318.542 85.97C318.542 91.01 319.142 95.42 320.342 99.2L312.512 102.8C308.732 101.9 306.452 99.44 305.672 95.42C304.112 97.22 302.372 98.75 300.452 100.01C298.592 101.27 297.032 101.9 295.772 101.9C292.952 101.9 290.372 100.64 288.032 98.12C285.752 95.6 284.612 93.2 284.612 90.92C284.612 88.64 285.092 86.24 286.052 83.72C287.012 81.14 288.362 78.68 290.102 76.34C291.842 73.94 294.182 71.99 297.122 70.49C300.062 68.93 302.942 68.15 305.762 68.15C308.582 68.15 310.622 68.6 311.882 69.5L314.222 64.82C316.322 65.6 318.182 66.68 319.802 68.06C321.422 69.38 322.532 70.52 323.132 71.48L324.032 72.92C323.132 76.34 321.632 79.7 319.532 83L318.542 84.62C318.542 85.1 318.542 85.55 318.542 85.97ZM297.662 92.99C300.182 92.99 302.852 91.52 305.672 88.58C306.392 83.72 307.952 78.53 310.352 73.01C305.792 75.53 302.372 78.8 300.092 82.82C298.232 86.12 297.302 88.97 297.302 91.37C297.302 91.91 297.362 92.45 297.482 92.99C297.542 92.99 297.602 92.99 297.662 92.99ZM343.048 79.49C341.668 86.81 340.978 93.5 340.978 99.56C340.978 100.64 341.008 101.66 341.068 102.62C338.428 101.78 335.608 100.55 332.608 98.93C329.668 97.31 327.598 95.69 326.398 94.07C327.838 87.95 329.308 83.45 330.808 80.57L331.528 79.04C330.688 77.48 329.188 75.92 327.028 74.36L325.858 73.55C327.058 72.65 329.518 71.36 333.238 69.68C334.258 66.5 335.368 63.65 336.568 61.13C337.768 58.55 338.698 56.78 339.358 55.82L340.348 54.38L346.108 66.08L355.558 65.18L351.598 82.55L343.048 79.49ZM382.681 67.07C386.221 67.07 389.701 71.06 393.121 79.04C390.241 82.88 388.081 88.13 386.641 94.79C386.041 97.37 385.711 99.95 385.651 102.53H385.111C380.371 102.53 377.281 100.4 375.841 96.14C375.301 94.58 375.031 92.99 375.031 91.37C375.031 87.83 375.871 83.51 377.551 78.41C373.531 81.89 369.691 87.44 366.031 95.06C365.791 96.44 365.551 98.63 365.311 101.63C361.891 100.91 359.341 99.92 357.661 98.66C356.101 97.52 355.171 96.59 354.871 95.87C354.991 90.35 355.531 84.14 356.491 77.24C357.511 70.34 358.471 64.82 359.371 60.68C360.271 56.48 360.781 54.35 360.901 54.29C363.781 53.39 366.691 52.7 369.631 52.22C372.631 51.68 374.881 51.38 376.381 51.32H378.631C374.791 59.9 371.551 69.56 368.911 80.3C371.191 76.22 373.531 73.01 375.931 70.67C378.391 68.27 380.641 67.07 382.681 67.07ZM427.527 85.97C427.527 91.01 428.127 95.42 429.327 99.2L421.497 102.8C417.717 101.9 415.437 99.44 414.657 95.42C413.097 97.22 411.357 98.75 409.437 100.01C407.577 101.27 406.017 101.9 404.757 101.9C401.937 101.9 399.357 100.64 397.017 98.12C394.737 95.6 393.597 93.2 393.597 90.92C393.597 88.64 394.077 86.24 395.037 83.72C395.997 81.14 397.347 78.68 399.087 76.34C400.827 73.94 403.167 71.99 406.107 70.49C409.047 68.93 411.927 68.15 414.747 68.15C417.567 68.15 419.607 68.6 420.867 69.5L423.207 64.82C425.307 65.6 427.167 66.68 428.787 68.06C430.407 69.38 431.517 70.52 432.117 71.48L433.017 72.92C432.117 76.34 430.617 79.7 428.517 83L427.527 84.62C427.527 85.1 427.527 85.55 427.527 85.97ZM406.647 92.99C409.167 92.99 411.837 91.52 414.657 88.58C415.377 83.72 416.937 78.53 419.337 73.01C414.777 75.53 411.357 78.8 409.077 82.82C407.217 86.12 406.287 88.97 406.287 91.37C406.287 91.91 406.347 92.45 406.467 92.99C406.527 92.99 406.587 92.99 406.647 92.99Z" fill="black"/>
</g>
<defs>
<clipPath id="clip0">
<rect width="512" height="512" fill="white"/>
</clipPath>
</defs>
</svg>
